<svg width="96" height="92" viewBox="0 0 96 92" fill="none" xmlns="http://www.w3.org/2000/svg">
<path d="M85 1H95V11C95 16.5229 90.5228 21 85 21C79.4771 21 75 16.5228 75 11C75 5.47715 79.4771 1 85 1Z" fill="#3C6E71"/>
<path fill-rule="evenodd" clip-rule="evenodd" d="M65 61L95 31H75L55 51L65 61Z" fill="#3C6E71"/>
<path d="M35 31H15L1.32456 72.0263C-1.78687 81.3606 5.1608 91 15 91V91L35 31Z" fill="#3C6E71"/>
<path d="M35 31C27.1895 31 15 31 15 31M35 31C46.7157 42.7157 65 61 65 61M35 31L55 51M35 31L15 91V91C5.1608 91 -1.78687 81.3606 1.32456 72.0263L15 31M35 31H15M45 61V61C50.5228 66.5229 59.4772 66.5229 65 61V61M45 61C50.5229 66.5229 59.4771 66.5229 65 61M45 61L30.0943 46.0943M65 61L55 51M65 61L95 31M65 61L61.3246 72.0263C58.2131 81.3606 65.1608 91 75 91V91L95 31M55 51L75 31H95M85 1H95V11M85 1C79.4771 1 75 5.47715 75 11M85 1V1C79.4771 1 75 5.47716 75 11V11M75 11C75 16.5228 79.4771 21 85 21M75 11V11C75 16.5228 79.4771 21 85 21V21M85 21C90.5228 21 95 16.5229 95 11M85 21V21C90.5228 21 95 16.5229 95 11V11" stroke="#353535"/>
</svg>
