<svg width="102" height="91" viewBox="0 0 102 91" fill="none" xmlns="http://www.w3.org/2000/svg">
<path d="M100 11V1H90C84.4772 1 80 5.47715 80 11C80 16.5228 84.4772 21 90 21C95.5228 21 100 16.5229 100 11Z" fill="url(#paint0_linear)" stroke="black"/>
<path d="M80 91L100 31L70 61L66.3246 72.0263C63.2131 81.3606 70.1608 91 80 91Z" fill="url(#paint1_linear)" stroke="black"/>
<path d="M80 31L60 51L70 61L100 31H80Z" fill="url(#paint2_linear)" stroke="black"/>
<path d="M70 61L40 31L35 46L50 61C55.5228 66.5228 64.4771 66.5229 70 61Z" fill="url(#paint3_linear)" stroke="black"/>
<path d="M20 31L6.32456 72.0263C3.21313 81.3606 10.1608 91 20 91L40 31H20Z" fill="#3C6E71" stroke="black"/>
<defs>
<linearGradient id="paint0_linear" x1="80" y1="21" x2="109" y2="-8" gradientUnits="userSpaceOnUse">
<stop stop-color="#284B63"/>
<stop offset="1" stop-color="#3C6E71" stop-opacity="0"/>
</linearGradient>
<linearGradient id="paint1_linear" x1="100" y1="1.5" x2="80" y2="91" gradientUnits="userSpaceOnUse">
<stop stop-color="#D9D9D9"/>
<stop offset="1" stop-color="#284B63"/>
</linearGradient>
<linearGradient id="paint2_linear" x1="100" y1="0.999998" x2="60" y2="71" gradientUnits="userSpaceOnUse">
<stop stop-color="#D9D9D9"/>
<stop offset="0.661458" stop-color="#2A4D64"/>
<stop offset="1" stop-color="#3C6E71"/>
</linearGradient>
<linearGradient id="paint3_linear" x1="40" y1="31" x2="60" y2="71" gradientUnits="userSpaceOnUse">
<stop stop-color="#3C6E71"/>
<stop offset="1" stop-color="#284B63"/>
</linearGradient>
</defs>
</svg>
